<svg width="96" height="96" viewBox="0 0 96 96" fill="none" xmlns="http://www.w3.org/2000/svg">
  <path d="M48 24C58 18 68 22 70 34C61 36 53 33 48 24Z" fill="#6DAA57"/>
  <path d="M46 30C37 21 26 22 22 34C31 38 40 37 46 30Z" fill="#7EBE63"/>
  <path d="M48 38C57 33 67 36 69 48C60 51 52 48 48 38Z" fill="#5E984B"/>
  <path d="M46 42C37 36 27 38 25 49C34 52 41 50 46 42Z" fill="#72B55B"/>
  <rect x="44" y="42" width="4" height="18" rx="2" fill="#7A5B36"/>
  <path d="M34 60H62L58 76C57.2 79.2 54.3 81.5 51 81.5H45C41.7 81.5 38.8 79.2 38 76L34 60Z" fill="#C59B5B"/>
</svg>
