<?xml version="1.0" encoding="UTF-8"?> <svg xmlns="http://www.w3.org/2000/svg" id="Filled" viewBox="0 0 24 24" width="512" height="512" style="max-width: 100%; max-height: 100%; width: auto; height: auto; transform: scale(1);"><path d="M22.773,7.721A4.994,4.994,0,0,0,19,6H15.011l.336-2.041A3.037,3.037,0,0,0,9.626,2.122L8,5.417V21H18.3a5.024,5.024,0,0,0,4.951-4.3l.705-5A4.994,4.994,0,0,0,22.773,7.721Z" data-element-index="0" style="cursor: pointer; fill: rgb(179, 142, 98);" fill="#b38e62"></path><path d="M0,11v5a5.006,5.006,0,0,0,5,5H6V6H5A5.006,5.006,0,0,0,0,11Z" data-element-index="1" style="cursor: pointer; fill: rgb(179, 142, 98);" fill="#b38e62"></path></svg> 